<svg width="130" height="133" viewBox="0 0 130 133" fill="none" xmlns="http://www.w3.org/2000/svg">
<path d="M85.3176 132.475C84.8453 132.364 84.4098 132.101 84.0885 131.705L53.6211 94.2184L9.52497 113.938C8.61781 114.344 7.55172 114.104 6.90468 113.35C6.25784 112.595 6.18458 111.504 6.72394 110.669L32.9574 70.1063L0.578896 34.2573C-0.0874599 33.5199 -0.18902 32.4311 0.328725 31.5831C0.846471 30.735 1.85499 30.3218 2.82182 30.5833L49.5023 43.001L73.5871 1.1258C74.0809 0.265796 75.0807 -0.166885 76.0452 0.0595934C77.0193 0.292002 77.7201 1.13039 77.774 2.12334L80.3903 50.3609L127.654 60.3292C128.632 60.5414 129.349 61.3551 129.429 62.3459C129.508 63.3368 128.927 64.2626 128 64.6205L82.9358 82.0151L88.0618 130.051C88.1677 131.039 87.6096 131.98 86.6922 132.362C86.2456 132.548 85.7651 132.58 85.3176 132.475Z" fill="#FFC432"/>
<path d="M85.83 130.289L54.277 91.4661L8.60891 111.889L35.7778 69.8789L2.24487 32.7522L50.5893 45.6121L75.5325 2.24414L78.2423 52.2018L127.191 62.5256L80.5218 80.5406L85.83 130.289Z" fill="#E36B62"/>
<mask id="mask0_15_1088" style="mask-type:luminance" maskUnits="userSpaceOnUse" x="82" y="123" width="2" height="2">
<path d="M82.3601 124.947H83.9601V123.347H82.3601V124.947Z" fill="white"/>
</mask>
<g mask="url(#mask0_15_1088)">
<path d="M83.9353 124.327C83.8345 124.757 83.4042 125.025 82.9738 124.923C82.5435 124.822 82.2767 124.392 82.3775 123.961C82.4785 123.532 82.9096 123.264 83.3392 123.365C83.7695 123.467 84.0361 123.897 83.9353 124.327Z" fill="#FA9E95"/>
</g>
<mask id="mask1_15_1088" style="mask-type:luminance" maskUnits="userSpaceOnUse" x="80" y="118" width="3" height="3">
<path d="M80.8601 120.246H82.7501V118.366H80.8601V120.246Z" fill="white"/>
</mask>
<g mask="url(#mask1_15_1088)">
<path d="M82.7212 119.525C82.6024 120.031 82.0958 120.345 81.5893 120.226C81.0834 120.107 80.7698 119.601 80.8885 119.095C81.0065 118.589 81.514 118.274 82.0197 118.393C82.5255 118.512 82.8392 119.019 82.7212 119.525Z" fill="#FA9E95"/>
</g>
<mask id="mask2_15_1088" style="mask-type:luminance" maskUnits="userSpaceOnUse" x="81" y="111" width="2" height="3">
<path d="M81.0602 113.536H82.9402V111.646H81.0602V113.536Z" fill="white"/>
</mask>
<g mask="url(#mask2_15_1088)">
<path d="M82.9139 112.806C82.7952 113.313 82.2885 113.627 81.7821 113.508C81.2762 113.389 80.9625 112.882 81.0813 112.377C81.2001 111.871 81.7067 111.556 82.2124 111.675C82.7183 111.794 83.0327 112.3 82.9139 112.806Z" fill="#FA9E95"/>
</g>
<mask id="mask3_15_1088" style="mask-type:luminance" maskUnits="userSpaceOnUse" x="76" y="113" width="6" height="5">
<path d="M76.5002 117.946H81.0002V113.456H76.5002V117.946Z" fill="white"/>
</mask>
<g mask="url(#mask3_15_1088)">
<path d="M80.9364 116.214C80.6525 117.423 79.4436 118.173 78.2348 117.89C77.0268 117.605 76.2767 116.397 76.5605 115.188C76.8438 113.979 78.0533 113.229 79.2621 113.513C80.4701 113.796 81.2202 115.006 80.9364 116.214Z" fill="#FA9E95"/>
</g>
<mask id="mask4_15_1088" style="mask-type:luminance" maskUnits="userSpaceOnUse" x="73" y="112" width="3" height="4">
<path d="M73.7344 115.407H75.6302V112.807H73.0302V114.54L73.7344 115.407Z" fill="white"/>
</mask>
<g mask="url(#mask4_15_1088)">
<path d="M75.5953 114.4C75.4318 115.097 74.7331 115.53 74.0361 115.367C73.3382 115.203 72.9056 114.505 73.0693 113.807C73.2328 113.109 73.9315 112.677 74.6285 112.84C75.3264 113.004 75.7588 113.702 75.5953 114.4Z" fill="#FA9E95"/>
</g>
<mask id="mask5_15_1088" style="mask-type:luminance" maskUnits="userSpaceOnUse" x="78" y="103" width="5" height="6">
<path d="M78.3002 108.046H82.6802V103.676H78.3002V108.046Z" fill="white"/>
</mask>
<g mask="url(#mask5_15_1088)">
<path d="M82.6196 106.36C82.344 107.536 81.1664 108.266 79.9905 107.99C78.8144 107.714 78.0846 106.537 78.3602 105.36C78.6368 104.184 79.8134 103.454 80.99 103.73C82.1661 104.007 82.896 105.184 82.6196 106.36Z" fill="#FA9E95"/>
</g>
<mask id="mask6_15_1088" style="mask-type:luminance" maskUnits="userSpaceOnUse" x="75" y="108" width="3" height="3">
<path d="M75.6401 110.346H77.9401V108.046H75.6401V110.346Z" fill="white"/>
</mask>
<g mask="url(#mask6_15_1088)">
<path d="M77.9143 109.461C77.7694 110.079 77.1501 110.463 76.5315 110.318C75.912 110.173 75.5287 109.553 75.6737 108.935C75.8187 108.316 76.438 107.932 77.0567 108.078C77.6753 108.223 78.0593 108.842 77.9143 109.461Z" fill="#FA9E95"/>
</g>
<mask id="mask7_15_1088" style="mask-type:luminance" maskUnits="userSpaceOnUse" x="72" y="104" width="4" height="5">
<path d="M72.0702 108.607H75.9102V104.767H72.0702V108.607Z" fill="white"/>
</mask>
<g mask="url(#mask7_15_1088)">
<path d="M75.8575 107.127C75.6153 108.159 74.5821 108.8 73.5497 108.558C72.5171 108.316 71.8769 107.282 72.1189 106.25C72.361 105.217 73.3942 104.577 74.4268 104.819C75.4592 105.061 76.0996 106.094 75.8575 107.127Z" fill="#FA9E95"/>
</g>
<mask id="mask8_15_1088" style="mask-type:luminance" maskUnits="userSpaceOnUse" x="68" y="106" width="2" height="2">
<path d="M68.1001 107.766H69.7001V106.166H68.1001V107.766Z" fill="white"/>
</mask>
<g mask="url(#mask8_15_1088)">
<path d="M69.6758 107.146C69.575 107.576 69.1447 107.843 68.7143 107.742C68.284 107.641 68.0172 107.211 68.118 106.781C68.219 106.35 68.6501 106.083 69.0796 106.184C69.51 106.285 69.7766 106.716 69.6758 107.146Z" fill="#FA9E95"/>
</g>
<mask id="mask9_15_1088" style="mask-type:luminance" maskUnits="userSpaceOnUse" x="14" y="105" width="4" height="4">
<path d="M17.5702 107.881V105.727H14.3302V108.957H15.1656L17.5702 107.881Z" fill="white"/>
</mask>
<g mask="url(#mask9_15_1088)">
<path d="M17.5264 107.713C17.3225 108.583 16.4521 109.122 15.5824 108.918C14.7135 108.714 14.1742 107.844 14.378 106.974C14.5819 106.105 15.4524 105.566 16.3213 105.77C17.1909 105.974 17.7303 106.843 17.5264 107.713Z" fill="#FA9E95"/>
</g>
<mask id="mask10_15_1088" style="mask-type:luminance" maskUnits="userSpaceOnUse" x="75" y="98" width="5" height="5">
<path d="M75.0402 102.517H79.1302V98.4365H75.0402V102.517Z" fill="white"/>
</mask>
<g mask="url(#mask10_15_1088)">
<path d="M79.0716 100.94C78.8138 102.038 77.7148 102.718 76.6174 102.461C75.5199 102.203 74.8392 101.105 75.097 100.007C75.3541 98.9099 76.4531 98.2283 77.5505 98.4862C78.648 98.744 79.3287 99.8424 79.0716 100.94Z" fill="#FA9E95"/>
</g>
<mask id="mask11_15_1088" style="mask-type:luminance" maskUnits="userSpaceOnUse" x="65" y="100" width="4" height="5">
<path d="M65.0802 104.016H68.3202V100.776H65.0802V104.016Z" fill="white"/>
</mask>
<g mask="url(#mask11_15_1088)">
<path d="M68.2735 102.764C68.0696 103.633 67.1992 104.173 66.3302 103.968C65.4606 103.764 64.9212 102.894 65.1251 102.025C65.329 101.155 66.1987 100.616 67.0683 100.819C67.938 101.023 68.4774 101.894 68.2735 102.764Z" fill="#FA9E95"/>
</g>
<mask id="mask12_15_1088" style="mask-type:luminance" maskUnits="userSpaceOnUse" x="19" y="103" width="4" height="3">
<path d="M19.7002 105.616H22.1102V103.216H19.7002V105.616Z" fill="white"/>
</mask>
<g mask="url(#mask12_15_1088)">
<path d="M22.0735 104.69C21.9218 105.337 21.2747 105.738 20.6277 105.586C19.9809 105.435 19.5796 104.788 19.7313 104.14C19.8837 103.494 20.5307 103.092 21.1776 103.244C21.8239 103.395 22.2251 104.043 22.0735 104.69Z" fill="#FA9E95"/>
</g>
<mask id="mask13_15_1088" style="mask-type:luminance" maskUnits="userSpaceOnUse" x="16" y="102" width="2" height="2">
<path d="M16.1001 103.786H17.7801V102.106H16.1001V103.786Z" fill="white"/>
</mask>
<g mask="url(#mask13_15_1088)">
<path d="M17.7573 103.139C17.6511 103.59 17.1992 103.87 16.748 103.765C16.2966 103.659 16.0164 103.207 16.1226 102.756C16.2287 102.304 16.6807 102.024 17.1319 102.13C17.5832 102.236 17.8627 102.688 17.7573 103.139Z" fill="#FA9E95"/>
</g>
<mask id="mask14_15_1088" style="mask-type:luminance" maskUnits="userSpaceOnUse" x="78" y="94" width="3" height="4">
<path d="M78.5902 97.1262H80.8902V94.8262H78.5902V97.1262Z" fill="white"/>
</mask>
<g mask="url(#mask14_15_1088)">
<path d="M80.8617 96.2415C80.7167 96.8601 80.0974 97.2442 79.4789 97.0984C78.8601 96.9536 78.4761 96.3341 78.6211 95.7155C78.7668 95.0969 79.3861 94.7128 80.0048 94.8578C80.6234 95.0033 81.0074 95.6229 80.8617 96.2415Z" fill="#FA9E95"/>
</g>
<mask id="mask15_15_1088" style="mask-type:luminance" maskUnits="userSpaceOnUse" x="59" y="94" width="4" height="4">
<path d="M59.3488 97.7063H62.1201V94.7163H59.1301V97.4373L59.3488 97.7063Z" fill="white"/>
</mask>
<g mask="url(#mask15_15_1088)">
<path d="M62.0784 96.5539C61.8902 97.357 61.0863 97.8555 60.283 97.6671C59.4792 97.4789 58.9809 96.6742 59.1691 95.871C59.3581 95.0676 60.162 94.5693 60.9653 94.7575C61.7684 94.9459 62.2674 95.7499 62.0784 96.5539Z" fill="#FA9E95"/>
</g>
<mask id="mask16_15_1088" style="mask-type:luminance" maskUnits="userSpaceOnUse" x="32" y="96" width="5" height="5">
<path d="M36.8601 99.2546V96.9463H32.8601V100.946H33.0772L36.8601 99.2546Z" fill="white"/>
</mask>
<g mask="url(#mask16_15_1088)">
<path d="M36.8116 99.4066C36.5591 100.483 35.4825 101.15 34.4067 100.897C33.3308 100.646 32.6637 99.5688 32.9162 98.4928C33.1686 97.4169 34.2453 96.7495 35.3211 97.0022C36.3962 97.2547 37.0641 98.3314 36.8116 99.4066Z" fill="#FA9E95"/>
</g>
<mask id="mask17_15_1088" style="mask-type:luminance" maskUnits="userSpaceOnUse" x="23" y="100" width="6" height="5">
<path d="M28.0701 103.185V100.666H23.8801V104.856H24.3338L28.0701 103.185Z" fill="white"/>
</mask>
<g mask="url(#mask17_15_1088)">
<path d="M28.016 103.241C27.7515 104.368 26.6226 105.067 25.4951 104.803C24.3679 104.538 23.6686 103.41 23.9329 102.283C24.1974 101.155 25.3257 100.455 26.453 100.72C27.5805 100.985 28.2805 102.113 28.016 103.241Z" fill="#FA9E95"/>
</g>
<mask id="mask18_15_1088" style="mask-type:luminance" maskUnits="userSpaceOnUse" x="19" y="98" width="4" height="4">
<path d="M19.2002 101.216H22.1402V98.2764H19.2002V101.216Z" fill="white"/>
</mask>
<g mask="url(#mask18_15_1088)">
<path d="M22.1024 100.082C21.9171 100.872 21.1274 101.361 20.3384 101.176C19.5487 100.991 19.0594 100.201 19.244 99.4119C19.4292 98.6228 20.2196 98.1328 21.0086 98.3179C21.7983 98.5033 22.2878 99.2931 22.1024 100.082Z" fill="#FA9E95"/>
</g>
<mask id="mask19_15_1088" style="mask-type:luminance" maskUnits="userSpaceOnUse" x="70" y="95" width="3" height="4">
<path d="M70.6101 98.1263H72.7701V95.9663H70.6101V98.1263Z" fill="white"/>
</mask>
<g mask="url(#mask19_15_1088)">
<path d="M72.7457 97.29C72.6098 97.8713 72.0277 98.2315 71.4473 98.0955C70.866 97.9587 70.5059 97.3774 70.6419 96.7961C70.7779 96.2148 71.3599 95.8546 71.9403 95.9906C72.5216 96.1274 72.8825 96.7087 72.7457 97.29Z" fill="#FA9E95"/>
</g>
<mask id="mask20_15_1088" style="mask-type:luminance" maskUnits="userSpaceOnUse" x="65" y="94" width="4" height="4">
<path d="M65.7603 97.4465H68.5603V94.6465H65.7603V97.4465Z" fill="white"/>
</mask>
<g mask="url(#mask20_15_1088)">
<path d="M68.5208 96.3637C68.3444 97.1162 67.5914 97.5824 66.839 97.406C66.0866 97.2296 65.6205 96.4766 65.7968 95.7241C65.9731 94.9725 66.7261 94.5054 67.4778 94.6818C68.23 94.8581 68.6971 95.6112 68.5208 96.3637Z" fill="#FA9E95"/>
</g>
<mask id="mask21_15_1088" style="mask-type:luminance" maskUnits="userSpaceOnUse" x="26" y="95" width="3" height="3">
<path d="M26.7703 97.6264H28.8703V95.5264H26.7703V97.6264Z" fill="white"/>
</mask>
<g mask="url(#mask21_15_1088)">
<path d="M28.843 96.8193C28.71 97.3834 28.1452 97.733 27.581 97.6008C27.017 97.4687 26.6666 96.9036 26.7995 96.3395C26.9319 95.7754 27.4967 95.425 28.0607 95.5572C28.6247 95.6903 28.9751 96.2544 28.843 96.8193Z" fill="#FA9E95"/>
</g>
<mask id="mask22_15_1088" style="mask-type:luminance" maskUnits="userSpaceOnUse" x="20" y="94" width="3" height="3">
<path d="M20.4302 96.2363H22.2202V94.4463H20.4302V96.2363Z" fill="white"/>
</mask>
<g mask="url(#mask22_15_1088)">
<path d="M22.1921 95.5493C22.0793 96.0298 21.5983 96.3285 21.1171 96.2157C20.6366 96.103 20.3379 95.6218 20.4507 95.1405C20.5641 94.6594 21.0453 94.3612 21.5258 94.4741C22.0068 94.5869 22.305 95.068 22.1921 95.5493Z" fill="#FA9E95"/>
</g>
<mask id="mask23_15_1088" style="mask-type:luminance" maskUnits="userSpaceOnUse" x="63" y="88" width="5" height="5">
<path d="M63.7802 92.9461H67.9402V88.7861H63.7802V92.9461Z" fill="white"/>
</mask>
<g mask="url(#mask23_15_1088)">
<path d="M67.882 91.3392C67.6198 92.4578 66.4997 93.152 65.3814 92.8895C64.2622 92.6273 63.5681 91.5073 63.8311 90.388C64.0933 89.2695 65.2133 88.5754 66.3318 88.8376C67.4501 89.1006 68.1442 90.2198 67.882 91.3392Z" fill="#FA9E95"/>
</g>
<mask id="mask24_15_1088" style="mask-type:luminance" maskUnits="userSpaceOnUse" x="38" y="92" width="6" height="5">
<path d="M43.2702 96.3882V92.0664H38.6602V96.6864H42.6033L43.2702 96.3882Z" fill="white"/>
</mask>
<g mask="url(#mask24_15_1088)">
<path d="M43.21 94.9016C42.9193 96.1427 41.6769 96.9124 40.4367 96.6209C39.1958 96.3303 38.4262 95.0885 38.7169 93.8473C39.0082 92.6062 40.2499 91.8367 41.491 92.128C42.7319 92.4188 43.5013 93.6606 43.21 94.9016Z" fill="#FA9E95"/>
</g>
<mask id="mask25_15_1088" style="mask-type:luminance" maskUnits="userSpaceOnUse" x="31" y="92" width="5" height="5">
<path d="M31.1001 96.2462H35.2701V92.0762H31.1001V96.2462Z" fill="white"/>
</mask>
<g mask="url(#mask25_15_1088)">
<path d="M35.2173 94.6374C34.9536 95.7604 33.8299 96.4568 32.707 96.1938C31.5841 95.9301 30.8878 94.8063 31.1507 93.6833C31.4145 92.561 32.5382 91.8638 33.661 92.1276C34.7839 92.3913 35.4803 93.5151 35.2173 94.6374Z" fill="#FA9E95"/>
</g>
<mask id="mask26_15_1088" style="mask-type:luminance" maskUnits="userSpaceOnUse" x="57" y="88" width="5" height="4">
<path d="M57.9702 91.6061H61.0702V88.4961H57.9702V91.6061Z" fill="white"/>
</mask>
<g mask="url(#mask26_15_1088)">
<path d="M61.0295 90.4044C60.8339 91.239 59.9984 91.7568 59.1639 91.5611C58.3295 91.3652 57.811 90.5299 58.0066 89.6953C58.2032 88.8608 59.0385 88.3422 59.873 88.5379C60.7074 88.7345 61.2252 89.5698 61.0295 90.4044Z" fill="#FA9E95"/>
</g>
<mask id="mask27_15_1088" style="mask-type:luminance" maskUnits="userSpaceOnUse" x="51" y="88" width="4" height="4">
<path d="M54.277 91.4658L54.6674 91.9462H54.8302V88.3862H51.2802V91.9462H53.2027L54.277 91.4658Z" fill="white"/>
</mask>
<g mask="url(#mask27_15_1088)">
<path d="M54.7843 90.5696C54.5601 91.526 53.6031 92.1194 52.6475 91.8944C51.6912 91.6703 51.0981 90.7138 51.3228 89.7574C51.547 88.8018 52.5041 88.2084 53.4596 88.4326C54.4152 88.6576 55.0084 89.614 54.7843 90.5696Z" fill="#FA9E95"/>
</g>
<mask id="mask28_15_1088" style="mask-type:luminance" maskUnits="userSpaceOnUse" x="45" y="88" width="4" height="4">
<path d="M45.6501 91.7261H48.3801V88.9961H45.6501V91.7261Z" fill="white"/>
</mask>
<g mask="url(#mask28_15_1088)">
<path d="M48.3397 90.6719C48.168 91.4042 47.4351 91.8592 46.702 91.6874C45.9691 91.5155 45.5148 90.7817 45.6868 90.0487C45.8585 89.3165 46.5914 88.8614 47.3243 89.0334C48.0573 89.2052 48.5115 89.9389 48.3397 90.6719Z" fill="#FA9E95"/>
</g>
<mask id="mask29_15_1088" style="mask-type:luminance" maskUnits="userSpaceOnUse" x="32" y="86" width="5" height="5">
<path d="M32.2002 90.5666H36.7502V86.0166H32.2002V90.5666Z" fill="white"/>
</mask>
<g mask="url(#mask29_15_1088)">
<path d="M36.6921 88.8093C36.4052 90.0325 35.1815 90.7908 33.9584 90.5038C32.736 90.2169 31.9771 88.9931 32.264 87.7698C32.5509 86.5475 33.7753 85.7883 34.9977 86.0753C36.2206 86.3622 36.979 87.586 36.6921 88.8093Z" fill="#FA9E95"/>
</g>
<mask id="mask30_15_1088" style="mask-type:luminance" maskUnits="userSpaceOnUse" x="23" y="89" width="5" height="5">
<path d="M23.8102 93.3161H27.8802V89.2461H23.8102V93.3161Z" fill="white"/>
</mask>
<g mask="url(#mask30_15_1088)">
<path d="M27.8307 91.7488C27.5737 92.8442 26.4778 93.5233 25.3832 93.2664C24.288 93.0093 23.6088 91.9131 23.8659 90.8185C24.122 89.7238 25.2181 89.0438 26.3133 89.3009C27.4079 89.558 28.087 90.654 27.8307 91.7488Z" fill="#FA9E95"/>
</g>
<mask id="mask31_15_1088" style="mask-type:luminance" maskUnits="userSpaceOnUse" x="28" y="84" width="3" height="4">
<path d="M28.5502 87.2466H30.8202V84.9766H28.5502V87.2466Z" fill="white"/>
</mask>
<g mask="url(#mask31_15_1088)">
<path d="M30.7906 86.3698C30.6472 86.9802 30.0374 87.3584 29.4271 87.2149C28.8176 87.0722 28.4394 86.4616 28.5821 85.852C28.7256 85.2422 29.3361 84.8635 29.9456 85.0069C30.5554 85.1496 30.9333 85.76 30.7906 86.3698Z" fill="#FA9E95"/>
</g>
<mask id="mask32_15_1088" style="mask-type:luminance" maskUnits="userSpaceOnUse" x="35" y="78" width="4" height="4">
<path d="M35.0203 81.9062H38.2803V78.6362H35.0203V81.9062Z" fill="white"/>
</mask>
<g mask="url(#mask32_15_1088)">
<path d="M38.2402 80.6457C38.0341 81.5245 37.1546 82.0698 36.276 81.8636C35.3975 81.6574 34.8528 80.7779 35.059 79.8993C35.2644 79.0206 36.1438 78.4751 37.0225 78.6813C37.9011 78.8877 38.4464 79.767 38.2402 80.6457Z" fill="#FA9E95"/>
</g>
<mask id="mask33_15_1088" style="mask-type:luminance" maskUnits="userSpaceOnUse" x="31" y="81" width="4" height="4">
<path d="M31.6501 84.0067H34.5501V81.0967H31.6501V84.0067Z" fill="white"/>
</mask>
<g mask="url(#mask33_15_1088)">
<path d="M34.5128 82.8855C34.3298 83.6663 33.5483 84.1504 32.7676 83.9673C31.9868 83.7843 31.5027 83.0027 31.6858 82.2219C31.8688 81.4411 32.6503 80.9562 33.431 81.14C34.2118 81.3231 34.6959 82.1046 34.5128 82.8855Z" fill="#FA9E95"/>
</g>
<mask id="mask34_15_1088" style="mask-type:luminance" maskUnits="userSpaceOnUse" x="89" y="74" width="5" height="4">
<path d="M93.2602 75.6232V74.1963H89.4602V77.09L93.2602 75.6232Z" fill="white"/>
</mask>
<g mask="url(#mask34_15_1088)">
<path d="M93.2062 76.5236C92.9664 77.5435 91.9458 78.1757 90.9268 77.9366C89.907 77.6975 89.2741 76.6768 89.5139 75.6569C89.753 74.6377 90.7736 74.0048 91.7926 74.2439C92.8124 74.483 93.4453 75.5036 93.2062 76.5236Z" fill="#FA9E95"/>
</g>
<mask id="mask35_15_1088" style="mask-type:luminance" maskUnits="userSpaceOnUse" x="84" y="74" width="3" height="3">
<path d="M84.4802 76.2463H86.0502V74.6763H84.4802V76.2463Z" fill="white"/>
</mask>
<g mask="url(#mask35_15_1088)">
<path d="M86.0311 75.6462C85.9324 76.0676 85.5102 76.3298 85.0881 76.2306C84.666 76.1319 84.4046 75.7097 84.504 75.2875C84.6025 74.8654 85.0246 74.6039 85.4468 74.7024C85.8689 74.8019 86.1305 75.224 86.0311 75.6462Z" fill="#FA9E95"/>
</g>
<mask id="mask36_15_1088" style="mask-type:luminance" maskUnits="userSpaceOnUse" x="34" y="68" width="4" height="5">
<path d="M35.7778 69.8789L34.1172 72.4466H37.6602V68.7666H34.7731L35.7778 69.8789Z" fill="white"/>
</mask>
<g mask="url(#mask36_15_1088)">
<path d="M37.6082 71.0267C37.3765 72.0145 36.3881 72.6279 35.4004 72.3963C34.412 72.1639 33.7994 71.1753 34.031 70.1875C34.2634 69.1998 35.2518 68.5863 36.2395 68.818C37.2272 69.0504 37.8405 70.0389 37.6082 71.0267Z" fill="#FA9E95"/>
</g>
<mask id="mask37_15_1088" style="mask-type:luminance" maskUnits="userSpaceOnUse" x="110" y="65" width="4" height="4">
<path d="M113.7 67.7332V65.2563H110.39V68.5663H111.542L113.7 67.7332Z" fill="white"/>
</mask>
<g mask="url(#mask37_15_1088)">
<path d="M113.658 67.2877C113.449 68.1783 112.557 68.7313 111.667 68.522C110.776 68.3136 110.223 67.4214 110.433 66.5308C110.641 65.6402 111.532 65.088 112.424 65.2965C113.313 65.5057 113.866 66.3971 113.658 67.2877Z" fill="#FA9E95"/>
</g>
<mask id="mask38_15_1088" style="mask-type:luminance" maskUnits="userSpaceOnUse" x="97" y="68" width="5" height="4">
<path d="M97.9302 71.6264H101.2V68.3564H97.9302V71.6264Z" fill="white"/>
</mask>
<g mask="url(#mask38_15_1088)">
<path d="M101.155 70.3673C100.949 71.2476 100.068 71.7937 99.1884 71.5867C98.3082 71.3805 97.7622 70.4995 97.9691 69.6202C98.1753 68.7399 99.056 68.1938 99.9355 68.4007C100.816 68.607 101.362 69.4878 101.155 70.3673Z" fill="#FA9E95"/>
</g>
<mask id="mask39_15_1088" style="mask-type:luminance" maskUnits="userSpaceOnUse" x="87" y="69" width="4" height="5">
<path d="M87.0002 73.6565H90.7102V69.9365H87.0002V73.6565Z" fill="white"/>
</mask>
<g mask="url(#mask39_15_1088)">
<path d="M90.6639 72.219C90.4292 73.2173 89.4304 73.8367 88.433 73.602C87.4348 73.3683 86.8155 72.3692 87.05 71.3709C87.2839 70.3728 88.2828 69.754 89.281 69.9879C90.2783 70.2224 90.8978 71.2215 90.6639 72.219Z" fill="#FA9E95"/>
</g>
<mask id="mask40_15_1088" style="mask-type:luminance" maskUnits="userSpaceOnUse" x="118" y="61" width="4" height="4">
<path d="M118.8 64.3564H121.55V61.6064H118.8V64.3564Z" fill="white"/>
</mask>
<g mask="url(#mask40_15_1088)">
<path d="M121.517 63.2918C121.344 64.0307 120.605 64.4896 119.865 64.3161C119.127 64.1428 118.668 63.4031 118.841 62.6634C119.015 61.9245 119.754 61.4664 120.493 61.6389C121.233 61.8132 121.691 62.5528 121.517 63.2918Z" fill="#FA9E95"/>
</g>
<mask id="mask41_15_1088" style="mask-type:luminance" maskUnits="userSpaceOnUse" x="112" y="59" width="5" height="5">
<path d="M113.256 59.5864H112.16V63.6964H116.27V60.2222L113.256 59.5864Z" fill="white"/>
</mask>
<g mask="url(#mask41_15_1088)">
<path d="M116.217 62.109C115.958 63.2148 114.851 63.9015 113.745 63.6416C112.639 63.3822 111.953 62.2749 112.212 61.1691C112.472 60.0633 113.579 59.3766 114.685 59.6358C115.791 59.8959 116.477 61.0025 116.217 62.109Z" fill="#FA9E95"/>
</g>
<mask id="mask42_15_1088" style="mask-type:luminance" maskUnits="userSpaceOnUse" x="103" y="61" width="6" height="6">
<path d="M103.64 66.5065H108.27V61.8765H103.64V66.5065Z" fill="white"/>
</mask>
<g mask="url(#mask42_15_1088)">
<path d="M108.211 64.7188C107.919 65.9629 106.674 66.7355 105.43 66.4434C104.185 66.1511 103.413 64.9057 103.705 63.6616C103.998 62.4175 105.242 61.6457 106.487 61.937C107.731 62.2291 108.503 63.4747 108.211 64.7188Z" fill="#FA9E95"/>
</g>
<mask id="mask43_15_1088" style="mask-type:luminance" maskUnits="userSpaceOnUse" x="93" y="63" width="6" height="6">
<path d="M93.8701 68.1063H98.5101V63.4663H93.8701V68.1063Z" fill="white"/>
</mask>
<g mask="url(#mask43_15_1088)">
<path d="M98.4473 66.3178C98.1544 67.5642 96.9074 68.3368 95.6613 68.0445C94.4151 67.7524 93.6426 66.5053 93.9346 65.2591C94.2269 64.0127 95.4745 63.2393 96.72 63.5322C97.966 63.8245 98.7393 65.0714 98.4473 66.3178Z" fill="#FA9E95"/>
</g>
<mask id="mask44_15_1088" style="mask-type:luminance" maskUnits="userSpaceOnUse" x="82" y="67" width="5" height="5">
<path d="M82.3002 71.886H86.7602V67.416H82.3002V71.886Z" fill="white"/>
</mask>
<g mask="url(#mask44_15_1088)">
<path d="M86.7056 70.1614C86.4239 71.3613 85.2233 72.1056 84.0235 71.8238C82.8228 71.5423 82.0788 70.3414 82.3603 69.1415C82.642 67.9416 83.8426 67.1973 85.0426 67.479C86.2423 67.7598 86.9865 68.9615 86.7056 70.1614Z" fill="#FA9E95"/>
</g>
<mask id="mask45_15_1088" style="mask-type:luminance" maskUnits="userSpaceOnUse" x="87" y="62" width="5" height="6">
<path d="M87.3002 67.3261H91.8802V62.7461H87.3002V67.3261Z" fill="white"/>
</mask>
<g mask="url(#mask45_15_1088)">
<path d="M91.8144 65.5577C91.5252 66.7877 90.2948 67.5505 89.065 67.262C87.8352 66.9736 87.0725 65.7423 87.3609 64.5124C87.6493 63.2824 88.8797 62.5196 90.1103 62.808C91.3401 63.0965 92.1028 64.3278 91.8144 65.5577Z" fill="#FA9E95"/>
</g>
<mask id="mask46_15_1088" style="mask-type:luminance" maskUnits="userSpaceOnUse" x="34" y="63" width="3" height="3">
<path d="M34.3601 65.3865H36.3501V63.3965H34.3601V65.3865Z" fill="white"/>
</mask>
<g mask="url(#mask46_15_1088)">
<path d="M36.3283 64.6181C36.2028 65.1539 35.6664 65.4864 35.1306 65.3609C34.5943 65.2354 34.2617 64.6989 34.388 64.1631C34.5136 63.6265 35.0499 63.2941 35.5856 63.4203C36.1214 63.546 36.4538 64.0823 36.3283 64.6181Z" fill="#FA9E95"/>
</g>
<mask id="mask47_15_1088" style="mask-type:luminance" maskUnits="userSpaceOnUse" x="29" y="62" width="2" height="3">
<path d="M30.7603 64.3232V62.6362H29.2366L30.7603 64.3232Z" fill="white"/>
</mask>
<g mask="url(#mask47_15_1088)">
<path d="M30.7287 64.3122C30.5562 65.0482 29.8202 65.5039 29.085 65.3313C28.3498 65.1588 27.8935 64.4227 28.066 63.6874C28.2385 62.9523 28.9745 62.4957 29.7097 62.6683C30.4449 62.841 30.9013 63.5769 30.7287 64.3122Z" fill="#FA9E95"/>
</g>
<mask id="mask48_15_1088" style="mask-type:luminance" maskUnits="userSpaceOnUse" x="97" y="57" width="5" height="4">
<path d="M97.8302 60.8363H101V57.6763H97.8302V60.8363Z" fill="white"/>
</mask>
<g mask="url(#mask48_15_1088)">
<path d="M100.955 59.6206C100.756 60.4708 99.9049 60.9984 99.0545 60.7989C98.2051 60.5994 97.6776 59.7484 97.8771 58.8981C98.0766 58.0484 98.927 57.5209 99.7771 57.7204C100.627 57.9199 101.155 58.7711 100.955 59.6206Z" fill="#FA9E95"/>
</g>
<mask id="mask49_15_1088" style="mask-type:luminance" maskUnits="userSpaceOnUse" x="89" y="58" width="2" height="3">
<path d="M89.0402 60.7163H90.8002V58.9463H89.0402V60.7163Z" fill="white"/>
</mask>
<g mask="url(#mask49_15_1088)">
<path d="M90.7804 60.033C90.6683 60.5074 90.1933 60.802 89.7187 60.6907C89.2444 60.5792 88.9493 60.104 89.0614 59.6296C89.1727 59.1551 89.6478 58.8599 90.1223 58.9712C90.5966 59.0826 90.8917 59.5579 90.7804 60.033Z" fill="#FA9E95"/>
</g>
<mask id="mask50_15_1088" style="mask-type:luminance" maskUnits="userSpaceOnUse" x="32" y="56" width="4" height="5">
<path d="M32.0502 60.0162H35.1702V56.9062H32.0502V60.0162Z" fill="white"/>
</mask>
<g mask="url(#mask50_15_1088)">
<path d="M35.1255 58.8161C34.9299 59.6522 34.0923 60.1715 33.2563 59.975C32.4196 59.7792 31.9003 58.9415 32.0967 58.1047C32.2931 57.2686 33.1299 56.7493 33.9667 56.9459C34.8029 57.1423 35.3219 57.9792 35.1255 58.8161Z" fill="#FA9E95"/>
</g>
<mask id="mask51_15_1088" style="mask-type:luminance" maskUnits="userSpaceOnUse" x="27" y="56" width="4" height="4">
<path d="M27.6702 59.7667H30.5902V56.8467H27.6702V59.7667Z" fill="white"/>
</mask>
<g mask="url(#mask51_15_1088)">
<path d="M30.5486 58.6385C30.3648 59.4223 29.5797 59.9095 28.7951 59.7249C28.0106 59.5411 27.5242 58.7557 27.708 57.972C27.8926 57.1874 28.6771 56.7002 29.4615 56.8848C30.2461 57.0686 30.7324 57.8538 30.5486 58.6385Z" fill="#FA9E95"/>
</g>
<mask id="mask52_15_1088" style="mask-type:luminance" maskUnits="userSpaceOnUse" x="37" y="53" width="2" height="3">
<path d="M37.0402 55.3465H38.9502V53.4365H37.0402V55.3465Z" fill="white"/>
</mask>
<g mask="url(#mask52_15_1088)">
<path d="M38.9282 54.6133C38.8079 55.1275 38.294 55.4458 37.7799 55.3255C37.2665 55.2052 36.9477 54.6902 37.0678 54.177C37.1881 53.6628 37.703 53.3446 38.2161 53.4649C38.7302 53.5852 39.0485 54.0992 38.9282 54.6133Z" fill="#FA9E95"/>
</g>
<mask id="mask53_15_1088" style="mask-type:luminance" maskUnits="userSpaceOnUse" x="31" y="52" width="3" height="3">
<path d="M31.5502 54.3465H33.7102V52.1865H31.5502V54.3465Z" fill="white"/>
</mask>
<g mask="url(#mask53_15_1088)">
<path d="M33.6835 53.5141C33.5476 54.0954 32.9663 54.4556 32.3858 54.3188C31.8054 54.1828 31.4452 53.6015 31.5812 53.0209C31.718 52.4404 32.2984 52.0802 32.8789 52.2162C33.4602 52.353 33.8203 52.9335 33.6835 53.5141Z" fill="#FA9E95"/>
</g>
<mask id="mask54_15_1088" style="mask-type:luminance" maskUnits="userSpaceOnUse" x="70" y="44" width="3" height="3">
<path d="M70.4902 46.6162H72.2802V44.8262H70.4902V46.6162Z" fill="white"/>
</mask>
<g mask="url(#mask54_15_1088)">
<path d="M72.2602 45.9218C72.1473 46.4023 71.6656 46.7011 71.1851 46.5882C70.7039 46.4756 70.4059 45.9935 70.5187 45.513C70.6314 45.032 71.1126 44.7338 71.5938 44.8458C72.0749 44.9595 72.373 45.4405 72.2602 45.9218Z" fill="#FA9E95"/>
</g>
<mask id="mask55_15_1088" style="mask-type:luminance" maskUnits="userSpaceOnUse" x="56" y="51" width="3" height="3">
<path d="M56.8501 53.8263H58.9301V51.7563H56.8501V53.8263Z" fill="white"/>
</mask>
<g mask="url(#mask55_15_1088)">
<path d="M58.8993 53.0281C58.7685 53.5855 58.2112 53.9315 57.6539 53.8007C57.0965 53.6699 56.7507 53.1117 56.8813 52.5543C57.0122 51.9977 57.5703 51.6518 58.1276 51.7825C58.6849 51.9133 59.0307 52.4707 58.8993 53.0281Z" fill="#FA9E95"/>
</g>
<mask id="mask56_15_1088" style="mask-type:luminance" maskUnits="userSpaceOnUse" x="56" y="44" width="5" height="6">
<path d="M56.4502 49.3962H60.9802V44.8662H56.4502V49.3962Z" fill="white"/>
</mask>
<g mask="url(#mask56_15_1088)">
<path d="M60.9226 47.6514C60.6365 48.8693 59.4179 49.6247 58.2002 49.3385C56.9822 49.0531 56.2269 47.8345 56.5123 46.6166C56.7986 45.3987 58.0171 44.6425 59.2349 44.9287C60.4527 45.2141 61.208 46.4327 60.9226 47.6514Z" fill="#FA9E95"/>
</g>
<mask id="mask57_15_1088" style="mask-type:luminance" maskUnits="userSpaceOnUse" x="69" y="47" width="5" height="5">
<path d="M69.4402 51.7064H73.3302V47.8164H69.4402V51.7064Z" fill="white"/>
</mask>
<g mask="url(#mask57_15_1088)">
<path d="M73.2798 50.203C73.0341 51.2491 71.9873 51.8976 70.9413 51.6518C69.8962 51.4068 69.2477 50.3599 69.4927 49.3145C69.7377 48.2686 70.7844 47.6192 71.8305 47.865C72.8765 48.1102 73.5248 49.1569 73.2798 50.203Z" fill="#FA9E95"/>
</g>
<mask id="mask58_15_1088" style="mask-type:luminance" maskUnits="userSpaceOnUse" x="38" y="87" width="3" height="3">
<path d="M38.4102 89.2463H40.0002V87.6562H38.4102V89.2463Z" fill="white"/>
</mask>
<g mask="url(#mask58_15_1088)">
<path d="M39.9773 88.6321C39.8773 89.0581 39.4506 89.3224 39.0254 89.2224C38.5997 89.1224 38.3352 88.6964 38.4352 88.2704C38.5354 87.8446 38.9614 87.5808 39.3871 87.6801C39.8131 87.7803 40.0768 88.2069 39.9773 88.6321Z" fill="#FA9E95"/>
</g>
<mask id="mask59_15_1088" style="mask-type:luminance" maskUnits="userSpaceOnUse" x="45" y="82" width="4" height="4">
<path d="M45.5902 85.7964H48.8102V82.5664H45.5902V85.7964Z" fill="white"/>
</mask>
<g mask="url(#mask59_15_1088)">
<path d="M48.7723 84.5516C48.5684 85.4198 47.6995 85.9584 46.8313 85.7545C45.9638 85.5506 45.4252 84.6816 45.6285 83.8142C45.8324 82.9457 46.7013 82.4071 47.5694 82.611C48.4375 82.8143 48.9754 83.6833 48.7723 84.5516Z" fill="#FA9E95"/>
</g>
<mask id="mask60_15_1088" style="mask-type:luminance" maskUnits="userSpaceOnUse" x="44" y="75" width="4" height="4">
<path d="M44.7302 78.3064H47.7702V75.2764H44.7302V78.3064Z" fill="white"/>
</mask>
<g mask="url(#mask60_15_1088)">
<path d="M47.7316 77.138C47.5404 77.9548 46.7224 78.4613 45.9057 78.27C45.0892 78.078 44.5825 77.2606 44.7745 76.4439C44.9658 75.6273 45.7831 75.1206 46.5998 75.3119C47.4164 75.5039 47.9237 76.3213 47.7316 77.138Z" fill="#FA9E95"/>
</g>
<mask id="mask61_15_1088" style="mask-type:luminance" maskUnits="userSpaceOnUse" x="39" y="81" width="5" height="4">
<path d="M39.6702 84.8563H43.2702V81.2563H39.6702V84.8563Z" fill="white"/>
</mask>
<g mask="url(#mask61_15_1088)">
<path d="M43.2257 83.469C42.9986 84.4388 42.0287 85.0396 41.0598 84.8123C40.0907 84.5845 39.4894 83.6155 39.7164 82.6463C39.9444 81.6772 40.9141 81.0756 41.883 81.3029C42.8521 81.5307 43.4527 82.5007 43.2257 83.469Z" fill="#FA9E95"/>
</g>
<mask id="mask62_15_1088" style="mask-type:luminance" maskUnits="userSpaceOnUse" x="39" y="65" width="5" height="6">
<path d="M39.0702 70.4062H43.6502V65.8262H39.0702V70.4062Z" fill="white"/>
</mask>
<g mask="url(#mask62_15_1088)">
<path d="M43.5939 68.6429C43.3055 69.8736 42.0736 70.638 40.8422 70.3488C39.6111 70.0596 38.8476 68.8275 39.1358 67.596C39.425 66.3655 40.6571 65.6012 41.8882 65.8902C43.1196 66.1794 43.8831 67.4116 43.5939 68.6429Z" fill="#FA9E95"/>
</g>
<mask id="mask63_15_1088" style="mask-type:luminance" maskUnits="userSpaceOnUse" x="41" y="50" width="5" height="6">
<path d="M41.2703 55.4665H45.8503V50.8765H41.2703V55.4665Z" fill="white"/>
</mask>
<g mask="url(#mask63_15_1088)">
<path d="M45.7891 53.6937C45.4999 54.925 44.268 55.6888 43.0367 55.4003C41.8055 55.1111 41.042 53.8791 41.3304 52.6476C41.6194 51.4163 42.8515 50.6519 44.0827 50.941C45.3148 51.2294 46.0783 52.4624 45.7891 53.6937Z" fill="#FA9E95"/>
</g>
<mask id="mask64_15_1088" style="mask-type:luminance" maskUnits="userSpaceOnUse" x="45" y="46" width="4" height="4">
<path d="M45.1702 49.6963H48.4402V46.4263H45.1702V49.6963Z" fill="white"/>
</mask>
<g mask="url(#mask64_15_1088)">
<path d="M48.3943 48.4397C48.1881 49.3184 47.3087 49.863 46.4308 49.6576C45.5523 49.4514 45.0068 48.5719 45.213 47.6933C45.4192 46.8145 46.2986 46.269 47.1773 46.4752C48.0557 46.6816 48.6004 47.5609 48.3943 48.4397Z" fill="#FA9E95"/>
</g>
<mask id="mask65_15_1088" style="mask-type:luminance" maskUnits="userSpaceOnUse" x="68" y="85" width="4" height="4">
<path d="M68.8501 88.3666H71.4401V85.7666H68.8501V88.3666Z" fill="white"/>
</mask>
<g mask="url(#mask65_15_1088)">
<path d="M71.4099 87.3635C71.2464 88.0607 70.5485 88.494 69.8508 88.3304C69.1536 88.1667 68.7202 87.4681 68.8839 86.7701C69.0482 86.0731 69.7462 85.6404 70.4439 85.8042C71.141 85.9677 71.5735 86.6657 71.4099 87.3635Z" fill="#FA9E95"/>
</g>
<mask id="mask66_15_1088" style="mask-type:luminance" maskUnits="userSpaceOnUse" x="77" y="53" width="6" height="5">
<path d="M77.4702 57.8863H82.1202V53.2363H77.4702V57.8863Z" fill="white"/>
</mask>
<g mask="url(#mask66_15_1088)">
<path d="M82.0578 56.0929C81.765 57.343 80.5136 58.1186 79.2637 57.8258C78.0136 57.532 77.2382 56.2804 77.5311 55.0304C77.8247 53.7803 79.0761 53.0047 80.326 53.2977C81.5759 53.5914 82.3514 54.8429 82.0578 56.0929Z" fill="#FA9E95"/>
</g>
<mask id="mask67_15_1088" style="mask-type:luminance" maskUnits="userSpaceOnUse" x="37" y="45" width="5" height="5">
<path d="M37.5103 49.5264H41.4403V45.5864H37.5103V49.5264Z" fill="white"/>
</mask>
<g mask="url(#mask67_15_1088)">
<path d="M41.387 48.0036C41.139 49.0608 40.0803 49.7169 39.0232 49.4689C37.9659 49.2208 37.3101 48.1628 37.558 47.1056C37.8068 46.0481 38.8647 45.3922 39.922 45.6403C40.9791 45.8882 41.6343 46.9464 41.387 48.0036Z" fill="#FA9E95"/>
</g>
<mask id="mask68_15_1088" style="mask-type:luminance" maskUnits="userSpaceOnUse" x="36" y="58" width="4" height="4">
<path d="M36.2302 61.7162H39.5802V58.3662H36.2302V61.7162Z" fill="white"/>
</mask>
<g mask="url(#mask68_15_1088)">
<path d="M39.5335 60.4285C39.3221 61.3288 38.4211 61.887 37.5214 61.6756C36.6211 61.4648 36.0625 60.5637 36.2738 59.6633C36.4852 58.763 37.3856 58.2048 38.2859 58.4156C39.1861 58.627 39.7448 59.5281 39.5335 60.4285Z" fill="#FA9E95"/>
</g>
<mask id="mask69_15_1088" style="mask-type:luminance" maskUnits="userSpaceOnUse" x="37" y="74" width="4" height="4">
<path d="M37.3701 77.3266H40.6801V74.0166H37.3701V77.3266Z" fill="white"/>
</mask>
<g mask="url(#mask69_15_1088)">
<path d="M40.6325 76.047C40.4232 76.9361 39.5343 77.4876 38.6451 77.2791C37.7569 77.0708 37.2055 76.1807 37.4139 75.2917C37.6224 74.4031 38.5114 73.8517 39.4006 74.0602C40.2895 74.2687 40.841 75.1585 40.6325 76.047Z" fill="#FA9E95"/>
</g>
<mask id="mask70_15_1088" style="mask-type:luminance" maskUnits="userSpaceOnUse" x="76" y="90" width="3" height="3">
<path d="M76.6401 92.7767H78.8201V90.5967H76.6401V92.7767Z" fill="white"/>
</mask>
<g mask="url(#mask70_15_1088)">
<path d="M78.7952 91.9337C78.6576 92.5201 78.0712 92.8834 77.4854 92.7458C76.899 92.6083 76.5352 92.0218 76.6725 91.4359C76.8101 90.8495 77.3967 90.4864 77.9831 90.6238C78.5687 90.7613 78.9327 91.3478 78.7952 91.9337Z" fill="#FA9E95"/>
</g>
<mask id="mask71_15_1088" style="mask-type:luminance" maskUnits="userSpaceOnUse" x="70" y="90" width="3" height="3">
<path d="M70.9902 92.8761H72.8802V90.9961H70.9902V92.8761Z" fill="white"/>
</mask>
<g mask="url(#mask71_15_1088)">
<path d="M72.8504 92.153C72.7317 92.6589 72.225 92.9734 71.7193 92.8546C71.2134 92.7358 70.899 92.2291 71.0178 91.7226C71.1365 91.2166 71.6432 90.9029 72.1496 91.0217C72.6553 91.1405 72.9692 91.6464 72.8504 92.153Z" fill="#FA9E95"/>
</g>
<mask id="mask72_15_1088" style="mask-type:luminance" maskUnits="userSpaceOnUse" x="72" y="86" width="6" height="6">
<path d="M72.4802 91.0065H77.0402V86.4365H72.4802V91.0065Z" fill="white"/>
</mask>
<g mask="url(#mask72_15_1088)">
<path d="M76.9841 89.2437C76.6957 90.4714 75.4667 91.2334 74.2392 90.9452C73.0111 90.6575 72.2497 89.4283 72.5373 88.1999C72.8257 86.9722 74.0548 86.2102 75.2823 86.4984C76.5104 86.7869 77.2718 88.0161 76.9841 89.2437Z" fill="#FA9E95"/>
</g>
<mask id="mask73_15_1088" style="mask-type:luminance" maskUnits="userSpaceOnUse" x="76" y="84" width="3" height="3">
<path d="M76.4001 86.466H78.7101V84.166H76.4001V86.466Z" fill="white"/>
</mask>
<g mask="url(#mask73_15_1088)">
<path d="M78.6748 85.5828C78.5298 86.2014 77.9105 86.5855 77.2912 86.4405C76.6732 86.295 76.2892 85.6762 76.4342 85.0568C76.5791 84.4382 77.1984 84.0541 77.8172 84.1998C78.4365 84.3446 78.8198 84.9642 78.6748 85.5828Z" fill="#FA9E95"/>
</g>
<mask id="mask74_15_1088" style="mask-type:luminance" maskUnits="userSpaceOnUse" x="78" y="76" width="4" height="5">
<path d="M81.5802 80.1318V76.9263H78.0602V80.4463H80.7654L81.5802 80.1318Z" fill="white"/>
</mask>
<g mask="url(#mask74_15_1088)">
<path d="M81.5341 79.0907C81.3122 80.0358 80.3664 80.6225 79.4212 80.4006C78.4762 80.1785 77.8896 79.2326 78.1115 78.2875C78.3335 77.3422 79.2793 76.7557 80.2243 76.9776C81.1696 77.1995 81.756 78.1455 81.5341 79.0907Z" fill="#FA9E95"/>
</g>
<path d="M79.7619 72.2979C77.1567 83.4028 66.044 90.2918 54.9413 87.6863C43.8383 85.0809 36.9491 73.9672 39.555 62.863C42.1602 51.7589 53.2721 44.8689 64.3758 47.4746C75.4786 50.08 82.367 61.1937 79.7619 72.2979Z" fill="#FFD456"/>
<path d="M77.6864 71.8102C75.3501 81.7682 65.3844 87.9459 55.4283 85.6096C45.4714 83.2738 39.2944 73.3068 41.6305 63.3498C43.9667 53.3919 53.9319 47.214 63.8886 49.5505C73.8447 51.887 80.0226 61.853 77.6864 71.8102Z" fill="#FFC432"/>
<path d="M76.385 59.6436C77.7626 63.062 78.1415 66.922 77.2359 70.7819C74.8997 80.7399 64.9347 86.9178 54.9778 84.582C49.2744 83.243 44.815 79.3986 42.4816 74.488C44.6572 79.8858 49.332 84.1794 55.4285 85.6094C65.3851 87.9459 75.3503 81.768 77.6865 71.8101C78.684 67.5571 78.1243 63.3049 76.385 59.6436Z" fill="#FFECA9"/>
<path d="M42.1902 64.4032C44.5265 54.446 54.4914 48.2676 64.4483 50.6039C69.6625 51.8272 73.8365 55.1455 76.2983 59.4576C73.9412 54.6358 69.5205 50.8715 63.8886 49.5505C53.9319 47.214 43.9668 53.3919 41.6306 63.3496C40.5182 68.0921 41.34 72.8353 43.5784 76.7566C41.7689 73.0543 41.1756 68.7279 42.1902 64.4032Z" fill="#FFAF0C"/>
<path d="M72.7914 74.726C72.7338 74.9711 72.5605 75.1729 72.3274 75.2662C72.0936 75.3603 71.8291 75.3343 71.6184 75.1968L68.4708 73.1441L68.1898 74.3404C67.9546 75.3454 66.9391 75.9738 65.935 75.7385L61.7887 74.7656L63.0034 83.3636C63.0758 83.8755 62.7165 84.3521 62.2054 84.4239L61.0265 84.5905C60.5154 84.663 60.038 84.3043 59.9656 83.7932L58.5843 74.0131C58.5565 74.0064 52.9703 82.1516 52.9703 82.1516C52.6791 82.5768 52.0911 82.6866 51.6667 82.3938L50.6842 81.7205C50.2583 81.4284 50.1492 80.8419 50.4415 80.4159L55.3529 73.2549L51.2065 72.282C50.2024 72.0465 49.5726 71.032 49.8078 70.027L51.6958 61.9818C51.8834 61.1823 52.5677 60.6429 53.3446 60.566C53.0287 59.6813 52.9472 58.7023 53.1773 57.7199C53.8146 55.0052 56.5311 53.3196 59.2476 53.957C60.7987 54.3208 61.9925 55.3744 62.6306 56.7082C63.7946 55.7973 65.3329 55.3857 66.8839 55.7487C69.599 56.3861 71.2829 59.1044 70.6456 61.8189C70.4155 62.8007 69.9068 63.6422 69.2306 64.2929C69.8918 64.7076 70.2654 65.4959 70.0777 66.2947L69.797 67.4925L73.5287 67.0546C73.779 67.0254 74.0271 67.1195 74.1945 67.3071C74.3626 67.4946 74.4276 67.7524 74.37 67.9975L72.7914 74.726Z" fill="#FFAF0C"/>
<path d="M72.2855 73.6084C72.2279 73.8534 72.0546 74.0552 71.8207 74.1485C71.5878 74.2426 71.3233 74.2166 71.1125 74.0791L67.9641 72.0264L67.6839 73.2227C67.4479 74.2277 66.4333 74.8561 65.4284 74.6208L61.282 73.6472L62.4975 82.2459C62.57 82.7578 62.2106 83.2337 61.6996 83.3062L60.5206 83.4728C60.0096 83.5453 59.5322 83.1866 59.4589 82.6755L58.0784 72.8954C58.0499 72.8888 52.4637 81.0339 52.4637 81.0339C52.1724 81.4592 51.5853 81.5682 51.1601 81.2761L50.1776 80.6028C49.7524 80.3107 49.6434 79.7242 49.9349 79.2975L54.8463 72.1372L50.7007 71.1643C49.6965 70.9289 49.066 69.9135 49.302 68.9093L51.1892 60.8634C51.3768 60.0646 52.0619 59.5252 52.8388 59.4475C52.5228 58.5636 52.4406 57.5841 52.6714 56.6022C53.3079 53.8875 56.0252 52.2019 58.7417 52.8393C60.2921 53.2031 61.4867 54.2567 62.124 55.5905C63.288 54.6796 64.8271 54.2672 66.378 54.631C69.0924 55.2684 70.7763 57.9867 70.1397 60.7012C69.9089 61.683 69.4001 62.5237 68.724 63.1752C69.386 63.5899 69.7587 64.3774 69.5713 65.177L69.2903 66.3741L73.0228 65.9362C73.2724 65.9077 73.5205 66.0018 73.6886 66.1895C73.856 66.3769 73.921 66.6348 73.8634 66.8798L72.2855 73.6084Z" fill="#FFDD72"/>
<path d="M49.9349 79.2982C49.6436 79.7242 49.7526 80.3107 50.1778 80.6028L50.4526 80.7912C50.4789 80.7239 50.5102 80.6581 50.5527 80.5953L55.4643 73.4351L54.8465 72.137L49.9349 79.2982ZM58.6679 74.1866L58.0784 72.8954L59.4592 82.6755C59.5054 83.0005 59.7162 83.263 59.9949 83.3928L58.6964 74.1935L58.6679 74.1866ZM66.3782 54.631C64.8271 54.2672 63.288 54.6796 62.124 55.5905C61.4867 54.2567 60.2921 53.2031 58.7419 52.8393C56.0254 52.2019 53.3082 53.8875 52.6717 56.6022C52.4408 57.5839 52.5229 58.5636 52.839 59.4475C52.0619 59.5252 51.3768 60.0646 51.1894 60.8634L49.302 68.9091C49.1408 69.5958 49.3902 70.281 49.8812 70.725C49.8729 70.5545 49.8789 70.3812 49.92 70.2072L51.8072 62.1613C51.9948 61.3625 52.6799 60.823 53.456 60.7454C53.1408 59.8615 53.0586 58.8819 53.2887 57.9001C53.926 55.1846 56.6432 53.4998 59.3589 54.1371C60.9101 54.501 62.1039 55.5545 62.742 56.8884C63.906 55.9775 65.4451 55.5651 66.9952 55.9289C68.296 56.2346 69.3562 57.0198 70.042 58.0517C69.5274 56.4004 68.1832 55.0547 66.3782 54.631ZM73.6886 66.1895C73.5205 66.0018 73.2726 65.9077 73.0231 65.9368L69.2904 66.3741C69.2829 66.4443 69.9084 67.6719 69.9084 67.6719L73.6401 67.2341C73.6873 67.2287 73.7344 67.2318 73.7806 67.2348L73.8635 66.8798C73.921 66.6348 73.856 66.3769 73.6886 66.1895Z" fill="#FFF1BB"/>
<mask id="mask75_15_1088" style="mask-type:luminance" maskUnits="userSpaceOnUse" x="25" y="50" width="6" height="6">
<path d="M25.6602 55.0561H30.2602V50.4561H25.6602V55.0561Z" fill="white"/>
</mask>
<g mask="url(#mask75_15_1088)">
<path d="M30.1983 53.2831C29.9083 54.519 28.672 55.2856 27.4363 54.9956C26.2005 54.7056 25.4339 53.4692 25.7237 52.2333C26.0136 50.9974 27.2509 50.2308 28.4859 50.5208C29.7216 50.8106 30.4882 52.0472 30.1983 53.2831Z" fill="#FA9E95"/>
</g>
<mask id="mask76_15_1088" style="mask-type:luminance" maskUnits="userSpaceOnUse" x="29" y="47" width="4" height="4">
<path d="M29.4001 50.4864H32.5301V47.3564H29.4001V50.4864Z" fill="white"/>
</mask>
<g mask="url(#mask76_15_1088)">
<path d="M32.4859 49.2813C32.2887 50.1233 31.446 50.6457 30.6039 50.4477C29.7619 50.2503 29.2396 49.4075 29.4375 48.5663C29.6349 47.724 30.4776 47.2018 31.3188 47.3991C32.1609 47.597 32.6831 48.4393 32.4859 49.2813Z" fill="#FA9E95"/>
</g>
<mask id="mask77_15_1088" style="mask-type:luminance" maskUnits="userSpaceOnUse" x="20" y="51" width="5" height="4">
<path d="M22.2728 54.9262H24.4402V51.0762H20.5902V53.0632L22.2728 54.9262Z" fill="white"/>
</mask>
<g mask="url(#mask77_15_1088)">
<path d="M24.3902 53.4406C24.1473 54.4755 23.1112 55.1174 22.0763 54.8745C21.0416 54.6318 20.3999 53.596 20.6426 52.5611C20.8855 51.5255 21.921 50.8838 22.9557 51.1265C23.9905 51.3694 24.6331 52.4058 24.3902 53.4406Z" fill="#FA9E95"/>
</g>
<mask id="mask78_15_1088" style="mask-type:luminance" maskUnits="userSpaceOnUse" x="17" y="49" width="3" height="3">
<path d="M19.4802 51.8344V49.9863H17.811L19.4802 51.8344Z" fill="white"/>
</mask>
<g mask="url(#mask78_15_1088)">
<path d="M19.4405 51.7452C19.2597 52.5163 18.4872 52.9952 17.7161 52.8137C16.9451 52.633 16.4662 51.8609 16.6477 51.0899C16.8286 50.3181 17.6004 49.8398 18.3713 50.0206C19.1431 50.2016 19.6212 50.9734 19.4405 51.7452Z" fill="#FA9E95"/>
</g>
<mask id="mask79_15_1088" style="mask-type:luminance" maskUnits="userSpaceOnUse" x="63" y="43" width="3" height="3">
<path d="M63.5103 45.3665H65.5003V43.3765H63.5103V45.3665Z" fill="white"/>
</mask>
<g mask="url(#mask79_15_1088)">
<path d="M65.4763 44.5941C65.3508 45.1291 64.8151 45.4608 64.2809 45.3353C63.7452 45.2099 63.4135 44.6748 63.539 44.1398C63.6644 43.6048 64.2002 43.2731 64.7351 43.3986C65.2701 43.5241 65.6017 44.0591 65.4763 44.5941Z" fill="#FA9E95"/>
</g>
<mask id="mask80_15_1088" style="mask-type:luminance" maskUnits="userSpaceOnUse" x="49" y="41" width="6" height="5">
<path d="M50.5894 45.6117L49.9202 45.4337V45.716H54.2102V41.416H53.0025L50.5894 45.6117Z" fill="white"/>
</mask>
<g mask="url(#mask80_15_1088)">
<path d="M54.1516 44.0573C53.8811 45.2109 52.7268 45.9267 51.5726 45.6563C50.4189 45.385 49.7032 44.2306 49.9744 43.077C50.2448 41.9226 51.3991 41.2076 52.5536 41.4781C53.7071 41.7485 54.4228 42.9037 54.1516 44.0573Z" fill="#FA9E95"/>
</g>
<mask id="mask81_15_1088" style="mask-type:luminance" maskUnits="userSpaceOnUse" x="25" y="45" width="4" height="4">
<path d="M25.4102 48.1564H28.0002V45.5664H25.4102V48.1564Z" fill="white"/>
</mask>
<g mask="url(#mask81_15_1088)">
<path d="M27.9703 47.1555C27.8068 47.8519 27.1104 48.2837 26.414 48.1201C25.7179 47.9571 25.286 47.2601 25.4495 46.5637C25.6125 45.8681 26.3094 45.4355 27.005 45.599C27.7014 45.7628 28.1333 46.459 27.9703 47.1555Z" fill="#FA9E95"/>
</g>
<mask id="mask82_15_1088" style="mask-type:luminance" maskUnits="userSpaceOnUse" x="21" y="44" width="4" height="4">
<path d="M21.0203 47.9167H24.5903V44.3467H21.0203V47.9167Z" fill="white"/>
</mask>
<g mask="url(#mask82_15_1088)">
<path d="M24.547 46.5431C24.3221 47.5033 23.3614 48.098 22.402 47.8731C21.4421 47.6481 20.8465 46.6873 21.0722 45.7279C21.2971 44.7678 22.2571 44.1722 23.2172 44.3971C24.1771 44.6228 24.7727 45.5829 24.547 46.5431Z" fill="#FA9E95"/>
</g>
<mask id="mask83_15_1088" style="mask-type:luminance" maskUnits="userSpaceOnUse" x="16" y="45" width="3" height="3">
<path d="M16.2703 47.9764H18.9703V45.2764H16.2703V47.9764Z" fill="white"/>
</mask>
<g mask="url(#mask83_15_1088)">
<path d="M18.934 46.9321C18.7636 47.6569 18.0381 48.106 17.3142 47.9363C16.5888 47.7659 16.1399 47.0411 16.3093 46.3156C16.4797 45.5916 17.2052 45.1411 17.9291 45.3114C18.6546 45.4818 19.1037 46.2073 18.934 46.9321Z" fill="#FA9E95"/>
</g>
<mask id="mask84_15_1088" style="mask-type:luminance" maskUnits="userSpaceOnUse" x="67" y="38" width="4" height="5">
<path d="M67.0802 42.3664H70.9102V38.5464H67.0802V42.3664Z" fill="white"/>
</mask>
<g mask="url(#mask84_15_1088)">
<path d="M70.8578 40.8936C70.6164 41.9225 69.5869 42.5607 68.5583 42.3193C67.5302 42.0779 66.8922 41.0484 67.1334 40.0202C67.3747 38.9913 68.4043 38.3532 69.4323 38.5944C70.4611 38.8358 71.0984 39.8655 70.8578 40.8936Z" fill="#FA9E95"/>
</g>
<mask id="mask85_15_1088" style="mask-type:luminance" maskUnits="userSpaceOnUse" x="63" y="35" width="5" height="4">
<path d="M63.6702 38.8664H67.2102V35.3164H63.6702V38.8664Z" fill="white"/>
</mask>
<g mask="url(#mask85_15_1088)">
<path d="M67.1669 37.5005C66.9428 38.4539 65.9888 39.0457 65.0353 38.8215C64.0813 38.5981 63.4895 37.644 63.7137 36.6899C63.9379 35.7363 64.8919 35.1447 65.8453 35.3687C66.7986 35.5921 67.3903 36.5472 67.1669 37.5005Z" fill="#FA9E95"/>
</g>
<mask id="mask86_15_1088" style="mask-type:luminance" maskUnits="userSpaceOnUse" x="35" y="41" width="3" height="3">
<path d="M36.0572 41.7461H35.7603V43.5061H37.5203V42.1353L36.0572 41.7461Z" fill="white"/>
</mask>
<g mask="url(#mask86_15_1088)">
<path d="M37.4939 42.8235C37.3834 43.2958 36.9104 43.5894 36.4376 43.4781C35.9654 43.3675 35.6726 42.8945 35.7831 42.4214C35.8944 41.9493 36.3664 41.6563 36.8394 41.7671C37.3117 41.8784 37.6045 42.3505 37.4939 42.8235Z" fill="#FA9E95"/>
</g>
<mask id="mask87_15_1088" style="mask-type:luminance" maskUnits="userSpaceOnUse" x="59" y="37" width="3" height="4">
<path d="M59.0402 40.8163H61.9402V37.9062H59.0402V40.8163Z" fill="white"/>
</mask>
<g mask="url(#mask87_15_1088)">
<path d="M61.8984 39.693C61.7153 40.4731 60.9346 40.9564 60.1554 40.7734C59.3754 40.5903 58.8912 39.8103 59.0742 39.0302C59.2572 38.2502 60.038 37.7668 60.8174 37.9499C61.5973 38.1329 62.0814 38.913 61.8984 39.693Z" fill="#FA9E95"/>
</g>
<mask id="mask88_15_1088" style="mask-type:luminance" maskUnits="userSpaceOnUse" x="30" y="40" width="5" height="5">
<path d="M31.2076 40.4561H30.5802V44.3161H34.4402V41.3159L31.2076 40.4561Z" fill="white"/>
</mask>
<g mask="url(#mask88_15_1088)">
<path d="M34.3873 42.8252C34.1439 43.8639 33.1045 44.5079 32.066 44.2642C31.0276 44.0207 30.3829 42.9813 30.6271 41.9428C30.8706 40.9041 31.9099 40.2601 32.9485 40.5036C33.9861 40.7473 34.6308 41.7865 34.3873 42.8252Z" fill="#FA9E95"/>
</g>
<mask id="mask89_15_1088" style="mask-type:luminance" maskUnits="userSpaceOnUse" x="27" y="41" width="3" height="2">
<path d="M27.5902 42.7263H29.1602V41.1562H27.5902V42.7263Z" fill="white"/>
</mask>
<g mask="url(#mask89_15_1088)">
<path d="M29.1411 42.1237C29.0424 42.5451 28.6203 42.8066 28.199 42.7081C27.7769 42.6086 27.5154 42.1864 27.6149 41.765C27.7134 41.3436 28.1355 41.0814 28.5568 41.1807C28.9789 41.2794 29.2406 41.7015 29.1411 42.1237Z" fill="#FA9E95"/>
</g>
<mask id="mask90_15_1088" style="mask-type:luminance" maskUnits="userSpaceOnUse" x="14" y="41" width="3" height="3">
<path d="M14.6602 43.9864H16.8202V41.8364H14.6602V43.9864Z" fill="white"/>
</mask>
<g mask="url(#mask90_15_1088)">
<path d="M16.789 43.1552C16.6537 43.7342 16.074 44.0937 15.4949 43.9576C14.9167 43.8216 14.5573 43.2426 14.6933 42.6636C14.8293 42.0852 15.4082 41.7258 15.9874 41.8618C16.5656 41.9978 16.9249 42.577 16.789 43.1552Z" fill="#FA9E95"/>
</g>
<mask id="mask91_15_1088" style="mask-type:luminance" maskUnits="userSpaceOnUse" x="17" y="38" width="5" height="5">
<path d="M17.6602 42.3061H21.6802V38.2861H17.6602V42.3061Z" fill="white"/>
</mask>
<g mask="url(#mask91_15_1088)">
<path d="M21.6303 40.7539C21.3763 41.8343 20.2945 42.5053 19.214 42.252C18.133 41.998 17.4621 40.9161 17.7161 39.8355C17.9693 38.7544 19.0513 38.0834 20.1323 38.3374C21.2125 38.5907 21.8835 39.6728 21.6303 40.7539Z" fill="#FA9E95"/>
</g>
<mask id="mask92_15_1088" style="mask-type:luminance" maskUnits="userSpaceOnUse" x="72" y="33" width="5" height="6">
<path d="M72.2802 38.0766H76.5802V33.7666H72.2802V38.0766Z" fill="white"/>
</mask>
<g mask="url(#mask92_15_1088)">
<path d="M76.5262 36.4145C76.255 37.5727 75.0961 38.2908 73.939 38.0188C72.7809 37.7476 72.0629 36.5886 72.3341 35.4311C72.6061 34.2739 73.7648 33.555 74.9221 33.8271C76.0794 34.0983 76.7982 35.2571 76.5262 36.4145Z" fill="#FA9E95"/>
</g>
<mask id="mask93_15_1088" style="mask-type:luminance" maskUnits="userSpaceOnUse" x="10" y="36" width="5" height="5">
<path d="M10.2603 40.176H14.2703V36.166H10.2603V40.176Z" fill="white"/>
</mask>
<g mask="url(#mask93_15_1088)">
<path d="M14.2174 38.6288C13.9649 39.7055 12.8868 40.3735 11.8101 40.121C10.7335 39.8683 10.0656 38.7902 10.3181 37.7135C10.5708 36.6368 11.648 35.9688 12.7253 36.2213C13.8019 36.4738 14.4698 37.5521 14.2174 38.6288Z" fill="#FA9E95"/>
</g>
<mask id="mask94_15_1088" style="mask-type:luminance" maskUnits="userSpaceOnUse" x="6" y="34" width="4" height="4">
<path d="M6.40351 37.3563H9.03015V34.7163H6.40015V37.3526L6.40351 37.3563Z" fill="white"/>
</mask>
<g mask="url(#mask94_15_1088)">
<path d="M8.99658 36.337C8.83075 37.0454 8.12175 37.4855 7.41274 37.3189C6.7045 37.153 6.26517 36.4432 6.43099 35.7349C6.59682 35.0264 7.30659 34.5864 8.01483 34.753C8.72307 34.9189 9.16317 35.6287 8.99658 36.337Z" fill="#FA9E95"/>
</g>
<mask id="mask95_15_1088" style="mask-type:luminance" maskUnits="userSpaceOnUse" x="70" y="29" width="3" height="3">
<path d="M70.4001 31.4864H72.8301V29.0464H70.4001V31.4864Z" fill="white"/>
</mask>
<g mask="url(#mask95_15_1088)">
<path d="M72.8026 30.5449C72.6494 31.1995 71.9935 31.6059 71.3383 31.4527C70.683 31.2987 70.2766 30.6428 70.4305 29.9883C70.5843 29.3329 71.2396 28.9265 71.8948 29.0797C72.5501 29.2336 72.9565 29.8896 72.8026 30.5449Z" fill="#FA9E95"/>
</g>
<mask id="mask96_15_1088" style="mask-type:luminance" maskUnits="userSpaceOnUse" x="60" y="28" width="4" height="4">
<path d="M60.1702 28.954V31.8461H63.2302V28.7861H60.2667L60.1702 28.954Z" fill="white"/>
</mask>
<g mask="url(#mask96_15_1088)">
<path d="M63.1916 30.6698C62.9988 31.4917 62.1762 32.0021 61.3538 31.8092C60.5319 31.6164 60.0216 30.7932 60.215 29.9712C60.4078 29.1493 61.2304 28.6389 62.0523 28.8317C62.8749 29.0244 63.3844 29.8478 63.1916 30.6698Z" fill="#FA9E95"/>
</g>
<mask id="mask97_15_1088" style="mask-type:luminance" maskUnits="userSpaceOnUse" x="72" y="23" width="5" height="6">
<path d="M76.712 23.9858H72.2502V28.4658H76.7302V24.322L76.712 23.9858Z" fill="white"/>
</mask>
<g mask="url(#mask97_15_1088)">
<path d="M76.6688 26.735C76.3863 27.938 75.1821 28.6844 73.9791 28.4021C72.7762 28.1195 72.0299 26.9158 72.3117 25.7121C72.594 24.5091 73.7983 23.7627 75.0012 24.045C76.204 24.3276 76.9505 25.5313 76.6688 26.735Z" fill="#FA9E95"/>
</g>
<mask id="mask98_15_1088" style="mask-type:luminance" maskUnits="userSpaceOnUse" x="64" y="26" width="4" height="4">
<path d="M64.4202 29.5364H67.1702V26.7764H64.4202V29.5364Z" fill="white"/>
</mask>
<g mask="url(#mask98_15_1088)">
<path d="M67.1334 28.4692C66.9594 29.2097 66.219 29.6691 65.4786 29.4951C64.7383 29.3218 64.2787 28.5805 64.4519 27.8401C64.6262 27.0996 65.3673 26.64 66.1077 26.8142C66.8481 26.9875 67.3067 27.7288 67.1334 28.4692Z" fill="#FA9E95"/>
</g>
<mask id="mask99_15_1088" style="mask-type:luminance" maskUnits="userSpaceOnUse" x="71" y="20" width="5" height="4">
<path d="M71.5502 23.5862H75.0702V20.0762H71.5502V23.5862Z" fill="white"/>
</mask>
<g mask="url(#mask99_15_1088)">
<path d="M75.0185 22.2321C74.7966 23.1772 73.8509 23.7646 72.9049 23.5427C71.9598 23.3207 71.3732 22.374 71.5945 21.4281C71.8164 20.4828 72.763 19.8963 73.7087 20.1182C74.654 20.3401 75.2404 21.2862 75.0185 22.2321Z" fill="#FA9E95"/>
</g>
<mask id="mask100_15_1088" style="mask-type:luminance" maskUnits="userSpaceOnUse" x="63" y="21" width="4" height="4">
<path d="M63.9902 22.3127V24.3766H66.8902V21.4766H64.4711L63.9902 22.3127Z" fill="white"/>
</mask>
<g mask="url(#mask100_15_1088)">
<path d="M66.8555 23.2624C66.6725 24.0416 65.8925 24.5258 65.1126 24.3427C64.3326 24.1597 63.8491 23.3788 64.0321 22.5996C64.2152 21.8195 64.9951 21.3361 65.7753 21.5192C66.5545 21.7015 67.0386 22.4823 66.8555 23.2624Z" fill="#FA9E95"/>
</g>
<mask id="mask101_15_1088" style="mask-type:luminance" maskUnits="userSpaceOnUse" x="73" y="14" width="4" height="3">
<path d="M73.4802 16.9167H76.0502V14.3467H73.4802V16.9167Z" fill="white"/>
</mask>
<g mask="url(#mask101_15_1088)">
<path d="M76.0122 15.9225C75.8507 16.6128 75.159 17.0419 74.4687 16.8797C73.7775 16.7175 73.3494 16.0256 73.5109 15.3353C73.673 14.644 74.3648 14.2159 75.0551 14.3781C75.7461 14.5401 76.1744 15.2314 76.0122 15.9225Z" fill="#FA9E95"/>
</g>
<mask id="mask102_15_1088" style="mask-type:luminance" maskUnits="userSpaceOnUse" x="67" y="16" width="5" height="4">
<path d="M67.9702 19.8164H71.0202V16.7764H67.9702V19.8164Z" fill="white"/>
</mask>
<g mask="url(#mask102_15_1088)">
<path d="M70.9832 18.6444C70.7904 19.464 69.9709 19.9721 69.1513 19.78C68.3317 19.5882 67.823 18.7678 68.0148 17.9479C68.2076 17.1283 69.0279 16.6195 69.8477 16.8123C70.6672 17.0043 71.1752 17.8248 70.9832 18.6444Z" fill="#FA9E95"/>
</g>
<mask id="mask103_15_1088" style="mask-type:luminance" maskUnits="userSpaceOnUse" x="68" y="11" width="4" height="4">
<path d="M68.2703 14.8712V14.9366H71.6503V11.5566H70.1767L68.2703 14.8712Z" fill="white"/>
</mask>
<g mask="url(#mask103_15_1088)">
<path d="M71.6087 13.6333C71.3951 14.5435 70.4835 15.1083 69.5735 14.8947C68.6629 14.6816 68.0981 13.7701 68.3118 12.86C68.5254 11.9491 69.437 11.3842 70.3468 11.5979C71.2576 11.8118 71.8224 12.7224 71.6087 13.6333Z" fill="#FA9E95"/>
</g>
<mask id="mask104_15_1088" style="mask-type:luminance" maskUnits="userSpaceOnUse" x="72" y="7" width="5" height="4">
<path d="M75.7974 7.12646H72.8801V10.8865H76.0013L75.7974 7.12646Z" fill="white"/>
</mask>
<g mask="url(#mask104_15_1088)">
<path d="M76.5905 9.43455C76.3537 10.4439 75.3434 11.0702 74.3341 10.834C73.3241 10.5972 72.6979 9.58623 72.9349 8.57684C73.1717 7.56725 74.1817 6.94118 75.192 7.17799C76.2012 7.41479 76.8272 8.42515 76.5905 9.43455Z" fill="#FA9E95"/>
</g>
</svg>
